<svg viewBox="0 0 512 512" xmlns="http://www.w3.org/2000/svg">
<!-- Icons by Iconmonstr -->
<!-- License Agreement at http://iconmonstr.com/license/ -->
    <defs>
        <path id="align-left" d="M462,116.001H50v-40h412V116.001z M280,196.001H50v-40h230V196.001z M462,275.999H50v-39.998h412 V275.999z M280,355.999H50v-40h230V355.999z M462,435.999H50v-40h412V435.999z"/>
        <path id="align-right" d="M50,76.001h412v40H50V76.001z M232,156.001h230v40H232V156.001z M50,236.001h412v39.998H50V236.001z M232,315.999h230v40H232V315.999z M50,395.999h412v40H50V395.999z"/>
        <path id="align-center" d="M462,116.001H50v-40h412V116.001z M462,275.999H50v-39.998h412V275.999z M371,196.001H141v-40h230 V196.001z M371,355.999H141v-40h230V355.999z M462,435.999H50v-40h412V435.999z"/>
        <path id="align-justify" d="M50,76.001h412v40H50V76.001z M50,156.001h412v40H50V156.001z M50,236.001h412v39.998H50V236.001z M50,315.999h412v40H50V315.999z M50,395.999h412v40H50V395.999z"/>
    </defs>
</svg>